<?xml version="1.0" encoding="UTF-8"?>
<svg xmlns="http://www.w3.org/2000/svg" xmlns:xlink="http://www.w3.org/1999/xlink" width="200pt" height="200pt" viewBox="0 0 200 200" version="1.1">
<g id="surface1">
<path style="fill:none;stroke-width:1;stroke-linecap:butt;stroke-linejoin:miter;stroke:rgb(100%,38.823529%,27.843137%);stroke-opacity:1;stroke-miterlimit:10;" d="M 0 100 L 0 0 L 0 200 L 2 16.667969 L 2 183.332031 L 4 43.089844 L 4 156.910156 L 6 58.636719 L 6 141.363281 L 8 16.363281 L 8 183.636719 L 10 0 L 10 200 L 12 100 L 14 7.011719 L 14 192.988281 L 16 73.679688 L 16 126.320312 L 18 23.78125 L 18 176.21875 L 20 86.6875 L 20 113.3125 L 22 4.472656 L 22 195.527344 L 24 22.359375 L 24 177.640625 L 26 99.1875 L 26 100.8125 L 28 26.625 L 28 173.375 L 30 40.242188 L 30 159.757812 L 32 85.671875 L 32 114.328125 L 34 59.859375 L 34 140.140625 L 36 83.941406 L 36 116.058594 L 38 62.804688 L 38 137.195312 L 40 53.046875 L 40 146.953125 L 42 36.585938 L 42 163.414062 L 44 68.191406 L 44 131.808594 L 46 68.699219 L 46 131.300781 L 48 48.578125 L 48 151.421875 L 50 53.863281 L 50 146.136719 L 52 35.875 L 52 164.125 L 54 83.332031 L 54 116.667969 L 56 31.910156 L 56 168.089844 L 58 76.929688 L 58 123.070312 L 60 78.660156 L 60 121.339844 L 62 57.417969 L 62 142.582031 L 64 29.269531 L 64 170.730469 L 66 31.199219 L 66 168.800781 L 68 21.035156 L 68 178.964844 L 70 2.234375 L 70 197.765625 L 72 15.855469 L 72 184.144531 L 74 82.519531 L 74 117.480469 L 76 30.488281 L 76 169.511719 L 78 6.808594 L 78 193.191406 L 80 7.925781 L 80 192.074219 L 82 17.683594 L 82 182.316406 L 84 8.535156 L 84 191.464844 L 86 49.796875 L 86 150.203125 L 88 93.496094 L 88 106.503906 L 90 64.734375 L 90 135.265625 L 92 3.152344 L 92 196.847656 L 94 39.9375 L 94 160.0625 L 96 98.578125 L 96 101.421875 L 98 40.34375 L 98 159.65625 L 100 79.269531 L 100 120.730469 L 102 6.199219 L 102 193.800781 L 104 59.960938 L 104 140.039062 L 106 34.65625 L 106 165.34375 L 108 72.765625 L 108 127.234375 L 110 12.703125 L 110 187.296875 L 112 25.507812 L 112 174.492188 L 114 88.007812 L 114 111.992188 L 116 37.804688 L 116 162.195312 L 118 82.621094 L 118 117.378906 L 120 83.535156 L 120 116.464844 L 122 58.128906 L 122 141.871094 L 124 32.824219 L 124 167.175781 L 126 45.222656 L 126 154.777344 L 128 33.738281 L 128 166.261719 L 130 51.726562 L 130 148.273438 L 132 92.074219 L 132 107.925781 L 134 2.03125 L 134 197.96875 L 136 49.898438 L 136 150.101562 L 138 31.300781 L 138 168.699219 L 140 60.164062 L 140 139.835938 L 142 28.355469 L 142 171.644531 L 144 75.914062 L 144 124.085938 L 146 40.140625 L 146 159.859375 L 148 54.472656 L 148 145.527344 L 150 13.515625 L 150 186.484375 L 152 96.644531 L 152 103.355469 L 154 24.492188 L 154 175.507812 L 156 59.859375 L 156 140.140625 L 158 94.308594 L 158 105.691406 L 160 19.816406 L 160 180.183594 L 162 83.535156 L 162 116.464844 L 164 53.046875 L 164 146.953125 L 166 80.082031 L 166 119.917969 L 168 60.46875 L 168 139.53125 L 170 86.890625 L 170 113.109375 L 172 48.273438 L 172 151.726562 L 174 0.40625 L 174 199.59375 L 176 3.761719 L 176 196.238281 L 178 14.125 L 178 185.875 L 180 22.765625 L 180 177.234375 L 182 6.402344 L 182 193.597656 L 184 30.488281 L 184 169.511719 L 186 55.589844 L 186 144.410156 L 188 7.316406 L 188 192.683594 L 190 24.289062 L 190 175.710938 L 192 88.921875 L 192 111.078125 L 194 71.035156 L 194 128.964844 L 196 89.226562 L 196 110.773438 L 198 83.839844 L 198 116.160156 "/>
</g>
</svg>
