<?xml version="1.0" encoding="UTF-8"?>
<svg xmlns="http://www.w3.org/2000/svg" xmlns:xlink="http://www.w3.org/1999/xlink" width="200pt" height="200pt" viewBox="0 0 200 200" version="1.1">
<g id="surface1">
<path style="fill:none;stroke-width:1;stroke-linecap:butt;stroke-linejoin:miter;stroke:rgb(0%,0%,0%);stroke-opacity:1;stroke-miterlimit:10;" d="M 0 100 L 0 57.652344 L 0 142.347656 L 2 16.328125 L 2 183.671875 L 4 42.855469 L 4 157.144531 L 6 58.46875 L 6 141.53125 L 8 16.019531 L 8 183.980469 L 10 84.488281 L 10 115.511719 L 12 100 L 14 6.632812 L 14 193.367188 L 16 73.570312 L 16 126.429688 L 18 23.46875 L 18 176.53125 L 20 86.632812 L 20 113.367188 L 22 4.082031 L 22 195.917969 L 24 22.039062 L 24 177.960938 L 26 99.183594 L 26 100.816406 L 28 26.328125 L 28 173.671875 L 30 40 L 30 160 L 32 85.613281 L 32 114.386719 L 34 59.695312 L 34 140.304688 L 36 83.878906 L 36 116.121094 L 38 62.652344 L 38 137.347656 L 40 52.855469 L 40 147.144531 L 42 36.328125 L 42 163.671875 L 44 68.0625 L 44 131.9375 L 46 68.570312 L 46 131.429688 L 48 48.367188 L 48 151.632812 L 50 53.671875 L 50 146.328125 L 52 35.613281 L 52 164.386719 L 54 83.265625 L 54 116.734375 L 56 31.632812 L 56 168.367188 L 58 76.835938 L 58 123.164062 L 60 78.570312 L 60 121.429688 L 62 57.246094 L 62 142.753906 L 64 28.980469 L 64 171.019531 L 66 30.917969 L 66 169.082031 L 68 20.714844 L 68 179.285156 L 70 1.835938 L 70 198.164062 L 72 15.511719 L 72 184.488281 L 74 82.449219 L 74 117.550781 L 76 30.203125 L 76 169.796875 L 78 6.429688 L 78 193.570312 L 80 7.550781 L 80 192.449219 L 82 17.347656 L 82 182.652344 L 84 8.164062 L 84 191.835938 L 86 49.59375 L 86 150.40625 L 88 93.46875 L 88 106.53125 L 90 64.59375 L 90 135.40625 L 92 2.753906 L 92 197.246094 L 94 39.695312 L 94 160.304688 L 96 98.570312 L 96 101.429688 L 98 40.101562 L 98 159.898438 L 100 79.183594 L 100 120.816406 L 102 5.816406 L 102 194.183594 L 104 59.796875 L 104 140.203125 L 106 34.386719 L 106 165.613281 L 108 72.652344 L 108 127.347656 L 110 12.347656 L 110 187.652344 L 112 25.203125 L 112 174.796875 L 114 87.960938 L 114 112.039062 L 116 37.550781 L 116 162.449219 L 118 82.550781 L 118 117.449219 L 120 83.46875 L 120 116.53125 L 122 57.960938 L 122 142.039062 L 124 32.550781 L 124 167.449219 L 126 45 L 126 155 L 128 33.46875 L 128 166.53125 L 130 51.53125 L 130 148.46875 L 132 92.039062 L 132 107.960938 L 134 1.632812 L 134 198.367188 L 136 49.695312 L 136 150.304688 L 138 31.019531 L 138 168.980469 L 140 60 L 140 140 L 142 28.0625 L 142 171.9375 L 144 75.816406 L 144 124.183594 L 146 39.898438 L 146 160.101562 L 148 54.285156 L 148 145.714844 L 150 13.164062 L 150 186.835938 L 152 96.632812 L 152 103.367188 L 154 24.183594 L 154 175.816406 L 156 59.695312 L 156 140.304688 L 158 94.285156 L 158 105.714844 L 160 19.488281 L 160 180.511719 L 162 83.46875 L 162 116.53125 L 164 52.855469 L 164 147.144531 L 166 80 L 166 120 L 168 60.304688 L 168 139.695312 L 170 86.835938 L 170 113.164062 L 172 48.0625 L 172 151.9375 L 174 0 L 174 200 L 176 3.367188 L 176 196.632812 L 178 13.777344 L 178 186.222656 L 180 22.449219 L 180 177.550781 L 182 6.019531 L 182 193.980469 L 184 30.203125 L 184 169.796875 L 186 55.40625 L 186 144.59375 L 188 6.9375 L 188 193.0625 L 190 23.980469 L 190 176.019531 L 192 88.878906 L 192 111.121094 L 194 70.917969 L 194 129.082031 L 196 89.183594 L 196 110.816406 L 198 83.777344 L 198 116.222656 "/>
</g>
</svg>
